<svg width="301" height="1755" viewBox="0 0 301 1755" fill="none" xmlns="http://www.w3.org/2000/svg">
<path d="M251 0V68.5V137M251 259C251 322 12.5774 360 11.0002 418C10.529 435.327 10.3393 481.704 10.3049 540C10.2939 558.787 10.299 578.811 10.3159 599.5C10.4227 729.512 10.9999 885.768 11.0001 926C11.0004 992.5 249.501 1040 251 1108.5C251.2 1117.64 251.303 1133.08 251.329 1153C251.504 1282.42 248.5 1600.5 248.5 1600.5C248.5 1600.5 242.5 1706 297.5 1735C352.5 1764 348.5 1715.5 348.5 1715.5M251 259C251 196 251 137 251 137M251 259V137" stroke="#009F69" stroke-width="20"/>
</svg>
