<svg width="334" height="1878" viewBox="0 0 334 1878" fill="none" xmlns="http://www.w3.org/2000/svg">
<path d="M278.501 0V68.5V137M278.501 259C278.501 322 11.5773 350 10.0001 408C10.1068 538.012 9.99983 875.768 10 916C10.0003 982.5 277.001 1040 278.5 1108.5C278.7 1117.64 278.803 1133.08 278.83 1153C279.004 1282.42 273.5 1729.5 273.5 1729.5C273.5 1729.5 267.5 1835 322.5 1864C377.5 1893 376 1715.5 376 1715.5M278.501 259C278.501 196 278.501 137 278.501 137M278.501 259V137" stroke="#009F69" stroke-width="20"/>
</svg>
