<svg id="visual" viewBox="0 0 900 600" width="900" height="600" xmlns="http://www.w3.org/2000/svg" xmlns:xlink="http://www.w3.org/1999/xlink" version="1.1"><g transform="translate(455.20211879269345 265.9118880286773)"><path d="M61.5 -96.2C87.3 -91.6 121.2 -90.6 147.9 -75.1C174.7 -59.7 194.3 -29.8 190.7 -2.1C187.1 25.7 160.2 51.3 132.7 65.5C105.2 79.6 77.1 82.2 54.9 100.4C32.7 118.6 16.3 152.3 -8.2 166.4C-32.7 180.6 -65.3 175.2 -89.6 158.2C-113.8 141.2 -129.7 112.6 -148.7 84.3C-167.7 56 -189.8 28 -198.1 -4.7C-206.3 -37.5 -200.6 -75 -172.3 -87.2C-144 -99.4 -93.1 -86.2 -60.6 -87C-28.1 -87.7 -14.1 -102.4 1.9 -105.6C17.8 -108.9 35.7 -100.8 61.5 -96.2" fill="#000000"></path></g></svg>