<svg id="visual" viewBox="0 0 900 600" width="900" height="600" xmlns="http://www.w3.org/2000/svg" xmlns:xlink="http://www.w3.org/1999/xlink" version="1.1"><g transform="translate(458.1736337504977 320.3446757701581)"><path d="M59 -102.4C84.7 -87.4 119.4 -88.2 138.6 -73.8C157.8 -59.3 161.4 -29.7 164.7 1.9C168 33.5 171 67 150.6 79.2C130.1 91.4 86.2 82.2 57.1 86.6C28.1 91.1 14.1 109 -0.5 109.8C-15 110.6 -30 94.3 -49.6 84.5C-69.3 74.6 -93.5 71.3 -123.5 58.3C-153.5 45.3 -189.3 22.7 -182.6 3.8C-176 -15 -127 -30 -99 -46.6C-71.1 -63.2 -64.3 -81.4 -51.3 -103.7C-38.3 -126.1 -19.2 -152.5 -1.3 -150.4C16.7 -148.2 33.3 -117.4 59 -102.4" fill="#000000"></path></g></svg>