<svg id="visual" viewBox="0 0 900 600" width="900" height="600" xmlns="http://www.w3.org/2000/svg" xmlns:xlink="http://www.w3.org/1999/xlink" version="1.1"><g transform="translate(482.1387053777238 305.6481518734941)"><path d="M134.3 -153.2C167.4 -132.2 183.2 -83.6 186.9 -36.8C190.6 10.1 182.4 55.3 161.9 95.9C141.4 136.5 108.6 172.6 70.6 180.6C32.6 188.6 -10.7 168.5 -45 146.3C-79.3 124 -104.6 99.5 -144.9 66.1C-185.1 32.6 -240.3 -9.7 -250.3 -60C-260.4 -110.3 -225.3 -168.5 -176.1 -186.7C-126.8 -204.8 -63.4 -182.9 -6.4 -175.3C50.6 -167.6 101.1 -174.2 134.3 -153.2" fill="#000000"></path></g></svg>