<svg id="visual" viewBox="0 0 900 600" width="900" height="600" xmlns="http://www.w3.org/2000/svg" xmlns:xlink="http://www.w3.org/1999/xlink" version="1.1"><g transform="translate(460.17987918508663 310.4237948871959)"><path d="M120.9 -122.6C167.7 -104.8 224.2 -77.2 243.9 -33C263.6 11.2 246.6 71.8 208.3 103.6C170.1 135.3 110.7 138.1 62.9 142.4C15.1 146.6 -21.2 152.2 -72 153.2C-122.9 154.1 -188.3 150.3 -228 115.3C-267.6 80.3 -281.5 14.1 -266.8 -43.1C-252 -100.4 -208.6 -148.6 -159.4 -165.9C-110.1 -183.2 -55.1 -169.6 -9 -158.9C37.1 -148.2 74.1 -140.4 120.9 -122.6" fill="#000000"></path></g></svg>